HIERARCHY
ROOT Hips
{
	OFFSET	0.00	0.00	0.00
	CHANNELS 6 Xposition Yposition Zposition Zrotation Xrotation Yrotation
	JOINT LeftUpLeg
	{
		OFFSET	 0.126116	-0.014019	-0.065224
		CHANNELS 3 Zrotation Xrotation Yrotation
		JOINT LeftLeg
		{
			OFFSET	 0.000000	 0.000000	 0.569914
			CHANNELS 3 Zrotation Xrotation Yrotation
			JOINT LeftFoot
			{
				OFFSET	 0.000000	 0.000000	 0.544423
				CHANNELS 3 Zrotation Xrotation Yrotation
				JOINT LeftToeBase
				{
					OFFSET	 0.000000	 0.000000	 0.207117
					CHANNELS 3 Zrotation Xrotation Yrotation
					End Site
					{
						OFFSET	 0.000000	 0.000000	 0.207117
					}
				}
			}
		}
	}
	JOINT RightUpLeg
	{
		OFFSET	-0.124023	-0.008373	-0.065224
		CHANNELS 3 Zrotation Xrotation Yrotation
		JOINT RightLeg
		{
			OFFSET	 0.000000	 0.000000	 0.570047
			CHANNELS 3 Zrotation Xrotation Yrotation
			JOINT RightFoot
			{
				OFFSET	 0.000000	 0.000000	 0.544354
				CHANNELS 3 Zrotation Xrotation Yrotation
				JOINT RightToeBase
				{
					OFFSET	 0.000000	 0.000000	 0.207540
					CHANNELS 3 Zrotation Xrotation Yrotation
					End Site
					{
						OFFSET	 0.000000	 0.000000	 0.207540
					}
				}
			}
		}
	}
	JOINT Spine
	{
		OFFSET	 0.000184	-0.007763	 0.117403
		CHANNELS 3 Zrotation Xrotation Yrotation
		JOINT Spine1
		{
			OFFSET	 0.000000	 0.000000	 0.137269
			CHANNELS 3 Zrotation Xrotation Yrotation
			JOINT Spine2
			{
				OFFSET	 0.000000	 0.000000	 0.156879
				CHANNELS 3 Zrotation Xrotation Yrotation
				JOINT LeftShoulder
				{
					OFFSET	 0.080501	-0.002496	 0.160144
					CHANNELS 3 Zrotation Xrotation Yrotation
					JOINT LeftArm
					{
						OFFSET	 0.000000	 0.000000	 0.164363
						CHANNELS 3 Zrotation Xrotation Yrotation
						JOINT LeftForeArm
						{
							OFFSET	 0.000000	 0.000000	 0.364576
							CHANNELS 3 Zrotation Xrotation Yrotation
							JOINT LeftHand
							{
								OFFSET	 0.000000	 0.000000	 0.360812
								CHANNELS 3 Zrotation Xrotation Yrotation
								JOINT LeftHandIndex1
								{
									OFFSET	 0.000000	 0.000000	 0.086006
									CHANNELS 3 Zrotation Xrotation Yrotation
									JOINT LeftHandIndex2
									{
										OFFSET	 0.000000	 0.000000	 0.047236
										CHANNELS 3 Zrotation Xrotation Yrotation
										JOINT LeftHandIndex3
										{
											OFFSET	-0.004284	-0.000551	 0.038166
											CHANNELS 3 Zrotation Xrotation Yrotation
											End Site
											{
												OFFSET	-0.004284	-0.000551	 0.038166
											}
										}
									}
								}
							}
						}
					}
				}
				JOINT Neck
				{
					OFFSET	 0.000000	 0.000000	 0.176489
					CHANNELS 3 Zrotation Xrotation Yrotation
					JOINT Head
					{
						OFFSET	 0.000000	-0.001747	 0.077940
						CHANNELS 3 Zrotation Xrotation Yrotation
						End Site
						{
							OFFSET	 0.000000	-0.001747	 0.077940
						}
					}
				}
				JOINT RightShoulder
				{
					OFFSET	-0.080363	 0.000306	 0.159706
					CHANNELS 3 Zrotation Xrotation Yrotation
					JOINT RightArm
					{
						OFFSET	 0.000000	 0.000000	 0.164196
						CHANNELS 3 Zrotation Xrotation Yrotation
						JOINT RightForeArm
						{
							OFFSET	 0.000000	 0.000000	 0.365611
							CHANNELS 3 Zrotation Xrotation Yrotation
							JOINT RightHand
							{
								OFFSET	 0.000000	 0.000000	 0.360648
								CHANNELS 3 Zrotation Xrotation Yrotation
								JOINT RightHandIndex1
								{
									OFFSET	 0.000000	 0.000000	 0.069977
									CHANNELS 3 Zrotation Xrotation Yrotation
									JOINT RightHandIndex2
									{
										OFFSET	 0.000000	 0.000000	 0.052305
										CHANNELS 3 Zrotation Xrotation Yrotation
										JOINT RightHandIndex3
										{
											OFFSET	 0.009002	-0.000782	 0.042196
											CHANNELS 3 Zrotation Xrotation Yrotation
											End Site
											{
												OFFSET	 0.009002	-0.000782	 0.042196
											}
										}
									}
								}
							}
						}
					}
				}
			}
		}
	}
}
MOTION
Frames:    8
Frame Time: 0.03333334
 0.011704	 0.051513	 1.201281	 4.730321	-1.498628	-3.489806	 3.017767	-11.392610	-171.976400	 0.724094	-38.709210	 0.232250	 53.521740	 81.252240	-57.301920	-2.370231	 31.474390	-0.066746	-7.137825	-30.570850	-174.888000	 10.621090	-51.916240	 9.001386	 14.242320	 74.482700	-9.934711	 2.358493	 33.070890	 0.104877	-0.414577	 8.791514	 1.121930	 0.974881	 2.883399	 2.365184	-6.443425	-2.754313	-2.995915	-93.886290	 58.913660	 175.505800	 15.664930	 34.365810	-41.947860	-1.294001	-0.049604	-0.614000	-0.947246	-18.903450	-7.331939	-4.870428	 19.228640	-2.788489	-3.881631	 21.471530	 2.202851	-4.806946	 5.560990	 0.146064	-0.092112	-5.055770	 0.175869	-8.429118	 1.960356	 2.267529	 89.796460	 61.626160	-179.965700	-20.270760	 52.870720	 8.539365	-1.007621	-2.930178	 15.767400	-4.605294	-4.509572	 0.655171	 6.296588	 25.179900	-0.552484	 1.841218	 45.056110	-6.953609	 0.479326	 24.481740	 3.592130
 0.011044	 0.038360	 1.200421	 5.138855	-1.300267	-3.483810	 2.603369	-10.931560	-172.095800	 1.004406	-38.643820	 0.406975	 55.978730	 81.653310	-59.973480	-2.369534	 31.592660	-0.069412	-8.084848	-31.734600	-174.995700	 10.705280	-50.460160	 8.888105	 16.812930	 76.195020	-12.952220	 2.358900	 33.010360	 0.103463	-0.992961	 8.697783	 1.072814	 0.951065	 2.825475	 2.390280	-6.506808	-2.795520	-2.991251	-93.961930	 58.957080	 175.339200	 15.364180	 33.487480	-42.365090	-1.863771	-0.043577	-0.695865	-1.130033	-19.306240	-8.095572	-4.870090	 19.244670	-2.791072	-3.878311	 21.513960	 2.199484	-4.806180	 5.569973	 0.145537	-0.069569	-5.082635	 0.187474	-8.411758	 1.940892	 2.172774	 89.772740	 61.655870	 179.977700	-20.095710	 53.278720	 7.574945	-0.933305	-2.994103	 16.291030	-4.475861	-4.611309	 0.576303	 6.291625	 24.642680	-0.536376	 1.913837	 44.470580	-7.018360	 0.563367	 24.113210	 3.549512
 0.010029	 0.016579	 1.199008	 5.622313	-0.855457	-3.508585	 2.088725	-10.196860	-172.262500	 1.199819	-38.407640	 0.526287	 59.759250	 82.149820	-63.906400	-2.368706	 31.730320	-0.072539	-9.535261	-33.520370	-175.276800	 10.908650	-47.502450	 8.656260	 18.622430	 77.607180	-15.427290	 2.358987	 32.997480	 0.103161	-1.695713	 8.397485	 0.985706	 0.892567	 2.822483	 2.484849	-6.599899	-2.898751	-3.025554	-94.082960	 58.976620	 175.078500	 14.646800	 32.123940	-42.945060	-2.329896	-0.036740	-0.812085	-1.087879	-19.987300	-8.645126	-4.865837	 19.353530	-2.798202	-3.871470	 21.601250	 2.192533	-4.804644	 5.588122	 0.144474	-0.044680	-5.100783	 0.223096	-8.417088	 1.920400	 2.096704	 89.725680	 61.740850	 179.865000	-19.839260	 53.930700	 6.200703	-1.033768	-3.092682	 16.767810	-4.447110	-4.765153	 0.418576	 6.279706	 23.793040	-0.548234	 2.014119	 43.639430	-7.107415	 0.747385	 23.297770	 3.457749
 0.008882	-0.007700	 1.197331	 6.079250	-0.424143	-3.547930	 1.559377	-9.234068	-172.449800	 1.383991	-38.004390	 0.635016	 64.326680	 82.671480	-68.607930	-2.367852	 31.869390	-0.075702	-10.963200	-34.973420	-175.690400	 10.819960	-43.610870	 8.043175	 21.454680	 78.604800	-18.976800	 2.359143	 32.974010	 0.102619	-2.392793	 8.102090	 0.911748	 0.820841	 2.864797	 2.565603	-6.689815	-3.017581	-3.056679	-94.199600	 58.994420	 174.827400	 13.806820	 30.672780	-43.560720	-2.785656	-0.029053	-0.928073	-1.105766	-20.655730	-9.148592	-4.861413	 19.465220	-2.805242	-3.864632	 21.688310	 2.185585	-4.802910	 5.608520	 0.143279	-0.021326	-5.119628	 0.257735	-8.423650	 1.900375	 2.026065	 89.678550	 61.823530	 179.751400	-19.556500	 54.575990	 4.885854	-1.160885	-3.132056	 16.907450	-4.429064	-4.920342	 0.245739	 6.267705	 22.956130	-0.561273	 2.108557	 42.831790	-7.190889	 0.927197	 22.489690	 3.370178
 0.007900	-0.034544	 1.195268	 6.306184	-0.002254	-3.758398	 1.272648	-7.917972	-172.486600	 1.485287	-37.264300	 0.685822	 69.916200	 83.150830	-74.277890	-2.366477	 32.091850	-0.080773	-11.660860	-36.023430	-175.901100	 10.637250	-38.699840	 7.182314	 20.011610	 77.253170	-18.273040	 2.360484	 32.774180	 0.097990	-2.948007	 7.744454	 1.015928	 0.758643	 3.104824	 2.619161	-6.759132	-3.181108	-3.092218	-94.299970	 58.988840	 174.614100	 12.814170	 29.181590	-44.254350	-3.558435	-0.017102	-1.048448	-1.345012	-21.542250	-8.956103	-4.852365	 19.670650	-2.813547	-3.855029	 21.810270	 2.175832	-4.797450	 5.672898	 0.139505	-0.011666	-5.157826	 0.291799	-8.452280	 1.877078	 2.010324	 89.605750	 61.905520	 179.575500	-19.177570	 55.176320	 3.707528	-1.557173	-3.168341	 16.650840	-4.641907	-5.045821	-0.255395	 6.250390	 21.946560	-0.596695	 2.199025	 42.034530	-7.270456	 1.156786	 21.441850	 3.261455
 0.006761	-0.061411	 1.192742	 6.511158	 0.384366	-3.964999	 0.989283	-6.529263	-172.540100	 1.576733	-36.448790	 0.727267	 75.626950	 83.564410	-80.054660	-2.364758	 32.363390	-0.086988	-12.116210	-36.556140	-176.082100	 10.457800	-33.349620	 6.173769	 19.992600	 76.170780	-18.908560	 2.360909	 32.710930	 0.096529	-3.506587	 7.399448	 1.121088	 0.696455	 3.343749	 2.661526	-6.820890	-3.334273	-3.120358	-94.392710	 58.982400	 174.417600	 11.863230	 27.826590	-44.880160	-4.305803	-0.004001	-1.171778	-1.622059	-22.378890	-8.770225	-4.843057	 19.876620	-2.820840	-3.845025	 21.937000	 2.165665	-4.790981	 5.748916	 0.135040	-0.001207	-5.197625	 0.322656	-8.475774	 1.851666	 1.990592	 89.535860	 61.981350	 179.405700	-18.726280	 55.692750	 2.675801	-1.979226	-3.139462	 16.090170	-4.848938	-5.199936	-0.790090	 6.232069	 20.918690	-0.633688	 2.296346	 41.150160	-7.355622	 1.385044	 20.382490	 3.156898
 0.005450	-0.087768	 1.189542	 6.582516	 0.588895	-4.158982	 0.806121	-4.951099	-172.614400	 1.629964	-35.624710	 0.744041	 79.801670	 83.905780	-84.240230	-2.360822	 32.963060	-0.100810	-11.872210	-36.792850	-176.097500	 9.906027	-28.644870	 5.157968	 28.678490	 77.882820	-28.009670	 2.355542	 33.494870	 0.114766	-4.071696	 7.109657	 1.256433	 0.655421	 3.754768	 2.642957	-6.843578	-3.509213	-3.114820	-94.444690	 58.969130	 174.308900	 10.883920	 26.801800	-45.424700	-4.999175	 0.010367	-1.301781	-2.064147	-22.970170	-8.586308	-4.831579	 20.102570	-2.822058	-3.831824	 22.103470	 2.152257	-4.777810	 5.903647	 0.125925	 0.014836	-5.250709	 0.335934	-8.469316	 1.810392	 1.946325	 89.476690	 62.024630	 179.261800	-18.053520	 56.096040	 1.648645	-2.497329	-3.112955	 15.482270	-5.054733	-5.504758	-1.579831	 6.208632	 19.693640	-0.683295	 2.454500	 39.651250	-7.492979	 1.642355	 19.167460	 3.043380
 0.004056	-0.110108	 1.185868	 6.660347	 0.739017	-4.321569	 0.634989	-3.618012	-172.694500	 1.690658	-35.033670	 0.768151	 83.562180	 84.189150	-88.016020	-2.356365	 33.607140	-0.115815	-11.456900	-37.537640	-176.003600	 9.728591	-25.921730	 4.625914	 39.477620	 79.217200	-39.152550	 2.350150	 34.235080	 0.132227	-4.595126	 6.907921	 1.365266	 0.625053	 4.039812	 2.642683	-6.859760	-3.644142	-3.116299	-94.487890	 58.954570	 174.219300	 10.133900	 26.083140	-45.850570	-5.557421	 0.023837	-1.419375	-2.475019	-23.556310	-8.510751	-4.824854	 20.286180	-2.837917	-3.819677	 22.256000	 2.139918	-4.764924	 6.054707	 0.116988	 0.032766	-5.297863	 0.346424	-8.456077	 1.782529	 1.890409	 89.427530	 62.049760	 179.142100	-17.410910	 56.386960	 0.656647	-2.927297	-3.121060	 15.168250	-5.200264	-5.830980	-2.264847	 6.188625	 18.605580	-0.717811	 2.589728	 38.305630	-7.609313	 1.867276	 18.087730	 2.948029
